<svg xmlns="http://www.w3.org/2000/svg" xml:space="preserve" width="512" height="509" shape-rendering="geometricPrecision" text-rendering="geometricPrecision" image-rendering="optimizeQuality" fill-rule="evenodd" clip-rule="evenodd" viewBox="0 0 512 508.84">
<path fill-rule="nonzero" d="M122.58 82.55h266.84c10.1 0 19.28 4.14 25.92 10.78l.56.62c6.33 6.6 10.24 15.55 10.24 25.31v270.32c0 10.04-4.15 19.21-10.8 25.87l-.04.04c-6.66 6.65-15.83 10.8-25.88 10.8H122.58c-10.05 0-19.23-4.14-25.89-10.79-6.68-6.65-10.83-15.83-10.83-25.92V119.26c0-10.1 4.13-19.29 10.78-25.93l.61-.56c6.6-6.32 15.54-10.22 25.33-10.22zm44.46 167.97c7.83 0 14.96 3.19 20.13 8.35l.04.04c5.17 5.19 8.35 12.31 8.35 20.13 0 7.86-3.19 15-8.35 20.16l-.54.5a28.666 28.666 0 0 1-9.89 6.13v41.93h97.67c4.82 0 8.73 3.9 8.73 8.72v50.47h106.24c4.75 0 9.1-1.96 12.26-5.11 3.16-3.17 5.12-7.52 5.12-12.26V119.26c0-4.56-1.8-8.75-4.72-11.87l-.41-.39c-3.15-3.15-7.49-5.11-12.25-5.11h-24.78v138.73c0 4.82-3.9 8.73-8.73 8.73h-38.24a28.632 28.632 0 0 1-7.19 12.03 28.31 28.31 0 0 1-20.15 8.38c-7.82 0-14.95-3.2-20.12-8.36l-.04-.03c-5.17-5.19-8.35-12.31-8.35-20.13 0-7.87 3.19-15.01 8.35-20.17 5.16-5.15 12.3-8.35 20.16-8.35 7.87 0 15.01 3.2 20.17 8.36l.49.54c2.77 2.92 4.94 6.41 6.28 10.27h29.92v-130H122.58c-4.58 0-8.77 1.79-11.89 4.7l-.38.41c-3.15 3.15-5.11 7.5-5.11 12.26v35.07h151.42v-6.25c0-3.48 1.42-6.64 3.7-8.92a12.61 12.61 0 0 1 8.92-3.7h29.71c3.48 0 6.64 1.42 8.92 3.7 2.27 2.28 3.7 5.44 3.7 8.92v29.95c0 3.47-1.43 6.64-3.7 8.91-2.28 2.28-5.44 3.7-8.92 3.7h-29.71c-3.47 0-6.64-1.42-8.92-3.7a12.57 12.57 0 0 1-3.7-8.91v-6.25H105.2v37.9h121.36c4.82 0 8.73 3.91 8.73 8.73v85.8h77.27v-8.63c0-3.61 1.48-6.9 3.84-9.26 2.37-2.37 5.66-3.85 9.27-3.85h32.98c3.62 0 6.9 1.48 9.27 3.85 2.36 2.36 3.84 5.65 3.84 9.26v33.24c0 3.62-1.48 6.9-3.84 9.27a13.084 13.084 0 0 1-9.27 3.85h-32.98c-3.61 0-6.9-1.48-9.27-3.85a13.117 13.117 0 0 1-3.84-9.27v-7.15h-86c-4.82 0-8.73-3.91-8.73-8.73v-85.81H105.2v162.45c0 4.75 1.97 9.1 5.12 12.25 3.15 3.16 7.5 5.12 12.26 5.12h143.14v-41.74h-97.66c-4.82 0-8.73-3.91-8.73-8.73V306.5a28.532 28.532 0 0 1-12.45-7.3 28.442 28.442 0 0 1-8.35-20.16c0-7.84 3.2-14.98 8.37-20.15a28.277 28.277 0 0 1 20.14-8.37zm8.71 19.77c-2.2-2.2-5.28-3.57-8.71-3.57-3.4 0-6.48 1.38-8.71 3.61-2.24 2.2-3.6 5.28-3.6 8.71 0 3.4 1.38 6.48 3.6 8.71 2.23 2.22 5.31 3.6 8.71 3.6 3.26 0 6.2-1.23 8.38-3.25l.33-.35c2.23-2.23 3.61-5.31 3.61-8.71 0-3.43-1.37-6.51-3.57-8.71l-.04-.04zm179.81 28.38h-26.8v27.06h26.8v-27.06zm-56.52-66.14a12.28 12.28 0 0 0-8.71-3.6c-3.4 0-6.48 1.37-8.7 3.6a12.264 12.264 0 0 0-3.61 8.71c0 3.42 1.37 6.5 3.57 8.71l.04.03c2.2 2.21 5.28 3.57 8.7 3.57 3.41 0 6.49-1.38 8.71-3.6 1.93-1.9 3.21-4.44 3.53-7.29-.15-.66-.24-1.34-.24-2.04 0-.52.05-1.03.14-1.53-.42-2.39-1.51-4.54-3.07-6.22l-.36-.34zm-3.68-80.87h-22.54v22.78h22.54v-22.78zM0 344.3v30.52c0 3.14 2.57 5.71 5.71 5.71h44.84c3.14 0 5.71-2.57 5.71-5.71V344.3c0-3.14-2.57-5.71-5.71-5.71H5.71c-3.14 0-5.71 2.57-5.71 5.71zm0-70.09v30.52c0 3.14 2.57 5.71 5.71 5.71h44.84c3.14 0 5.71-2.57 5.71-5.71v-30.52c0-3.14-2.57-5.71-5.71-5.71H5.71c-3.14 0-5.71 2.57-5.71 5.71zm0-70.09v30.52c0 3.14 2.57 5.71 5.71 5.71h44.84c3.14 0 5.71-2.57 5.71-5.71v-30.52c0-3.14-2.57-5.71-5.71-5.71H5.71c-3.14 0-5.71 2.57-5.71 5.71zm0-70.09v30.52c0 3.14 2.57 5.71 5.71 5.71h44.84c3.14 0 5.71-2.57 5.71-5.71v-30.52c0-3.14-2.57-5.71-5.71-5.71H5.71c-3.14 0-5.71 2.57-5.71 5.71zM512 344.3v30.52c0 3.14-2.57 5.71-5.71 5.71h-44.85c-3.13 0-5.7-2.57-5.7-5.71V344.3c0-3.14 2.57-5.71 5.7-5.71h44.85c3.14 0 5.71 2.57 5.71 5.71zm0-70.09v30.52c0 3.14-2.57 5.71-5.71 5.71h-44.85c-3.13 0-5.7-2.57-5.7-5.71v-30.52c0-3.14 2.57-5.71 5.7-5.71h44.85c3.14 0 5.71 2.57 5.71 5.71zm0-70.09v30.52c0 3.14-2.57 5.71-5.71 5.71h-44.85c-3.13 0-5.7-2.57-5.7-5.71v-30.52c0-3.14 2.57-5.71 5.7-5.71h44.85c3.14 0 5.71 2.57 5.71 5.71zm0-70.09v30.52c0 3.14-2.57 5.71-5.71 5.71h-44.85c-3.13 0-5.7-2.57-5.7-5.71v-30.52c0-3.14 2.57-5.71 5.7-5.71h44.85c3.14 0 5.71 2.57 5.71 5.71zM345.87 508.84h30.52c3.14 0 5.71-2.57 5.71-5.71v-44.84c0-3.14-2.57-5.71-5.71-5.71h-30.52c-3.14 0-5.71 2.57-5.71 5.71v44.84c0 3.14 2.57 5.71 5.71 5.71zm-70.08 0h30.52c3.14 0 5.7-2.57 5.7-5.71v-44.84c0-3.14-2.56-5.71-5.7-5.71h-30.52c-3.14 0-5.71 2.57-5.71 5.71v44.84c0 3.14 2.57 5.71 5.71 5.71zm-70.09 0h30.52c3.13 0 5.7-2.57 5.7-5.71v-44.84c0-3.14-2.57-5.71-5.7-5.71H205.7c-3.14 0-5.71 2.57-5.71 5.71v44.84c0 3.14 2.57 5.71 5.71 5.71zm-70.09 0h30.52c3.14 0 5.7-2.57 5.7-5.71v-44.84c0-3.14-2.56-5.71-5.7-5.71h-30.52c-3.14 0-5.71 2.57-5.71 5.71v44.84c0 3.14 2.57 5.71 5.71 5.71zM345.87 0h30.52c3.14 0 5.71 2.57 5.71 5.71v44.85c0 3.13-2.57 5.7-5.71 5.7h-30.52c-3.14 0-5.71-2.57-5.71-5.7V5.71c0-3.14 2.57-5.71 5.71-5.71zm-70.08 0h30.52c3.14 0 5.7 2.57 5.7 5.71v44.85c0 3.13-2.56 5.7-5.7 5.7h-30.52c-3.14 0-5.71-2.57-5.71-5.7V5.71c0-3.14 2.57-5.71 5.71-5.71zM205.7 0h30.52c3.13 0 5.7 2.57 5.7 5.71v44.85c0 3.13-2.57 5.7-5.7 5.7H205.7c-3.14 0-5.71-2.57-5.71-5.7V5.71c0-3.14 2.57-5.71 5.71-5.71zm-70.09 0h30.52c3.14 0 5.7 2.57 5.7 5.71v44.85c0 3.13-2.56 5.7-5.7 5.7h-30.52c-3.14 0-5.71-2.57-5.71-5.7V5.71c0-3.14 2.57-5.71 5.71-5.71z"/>
</svg>